<?xml version="1.0" standalone="no"?>
<!DOCTYPE svg PUBLIC "-//W3C//DTD SVG 20010904//EN"
 "http://www.w3.org/TR/2001/REC-SVG-20010904/DTD/svg10.dtd">
<svg version="1.0" xmlns="http://www.w3.org/2000/svg"
 width="624.000000pt" height="624.000000pt" viewBox="0 0 624.000000 624.000000"
 preserveAspectRatio="xMidYMid meet">
<metadata>
Created by potrace 1.14, written by Peter Selinger 2001-2017
</metadata>
<g transform="translate(0.000000,624.000000) scale(0.100000,-0.100000)"
fill="#000000" stroke="none">
<path d="M3469 5696 c-2 -2 -36 -6 -74 -10 -39 -4 -81 -8 -95 -11 -14 -2 -41
-6 -60 -9 -19 -3 -67 -12 -105 -20 -39 -8 -82 -17 -95 -20 -107 -21 -354 -110
-505 -181 -97 -47 -269 -144 -273 -156 -2 -5 -8 -9 -13 -9 -12 0 -176 -117
-249 -178 -101 -84 -286 -276 -368 -382 -45 -58 -88 -113 -97 -122 -20 -23
-12 -40 30 -62 l34 -19 20 24 c11 13 20 27 21 31 0 3 16 26 35 50 19 23 45 56
57 71 203 255 520 506 828 655 98 47 252 114 258 112 1 0 53 15 115 34 61 19
139 40 172 47 33 7 65 14 70 15 261 60 642 61 940 3 142 -28 142 -28 170 -39
14 -5 25 -8 25 -5 0 2 19 -3 43 -11 23 -9 50 -17 60 -19 100 -21 553 -234 565
-266 2 -5 8 -9 12 -9 22 0 196 -129 305 -225 145 -129 240 -231 344 -370 66
-88 131 -183 131 -189 0 -2 19 -35 42 -72 34 -57 108 -206 148 -299 84 -199
159 -512 175 -741 12 -153 6 -440 -10 -494 -2 -8 -6 -42 -10 -74 -3 -32 -7
-62 -9 -65 -3 -4 -7 -26 -11 -49 -14 -93 -83 -329 -132 -447 -25 -60 -133
-283 -156 -320 -47 -77 -151 -231 -158 -233 -5 -2 -9 -10 -9 -17 0 -8 -6 -18
-13 -22 -7 -4 -20 -18 -28 -30 -22 -31 -127 -150 -180 -202 -122 -121 -248
-225 -370 -305 -46 -31 -92 -62 -102 -70 -59 -45 -447 -220 -537 -242 -8 -2
-64 -17 -125 -34 -117 -32 -242 -56 -340 -65 -33 -3 -80 -8 -105 -11 -51 -6
-312 -6 -380 0 -41 4 -112 12 -180 21 -141 18 -388 86 -555 153 -213 85 -506
259 -659 392 -163 141 -292 278 -406 430 -25 33 -49 60 -54 60 -6 0 -66 -57
-66 -63 0 -3 6 -12 13 -19 6 -7 25 -31 42 -53 40 -55 39 -54 87 -110 175 -203
376 -377 605 -523 200 -127 511 -260 733 -312 86 -21 169 -38 215 -45 28 -5
57 -10 65 -11 102 -20 512 -26 625 -10 33 4 76 10 95 11 19 2 35 4 35 5 0 1
11 3 25 5 28 3 51 8 125 25 28 6 59 13 69 16 44 9 203 56 231 68 17 8 41 17
55 21 193 57 547 263 765 446 97 82 309 303 367 384 4 5 18 24 31 40 85 108
202 302 264 434 69 149 151 374 168 462 3 12 9 36 14 53 11 33 13 44 36 181
24 141 29 215 30 425 0 176 -6 278 -19 350 -3 14 -7 42 -10 63 -24 157 -95
414 -151 542 -7 17 -26 62 -43 100 -40 93 -105 214 -159 298 -23 37 -43 70
-43 72 0 3 -6 13 -14 22 -8 10 -50 65 -93 123 -81 109 -297 334 -393 410 -30
24 -60 48 -65 54 -6 6 -24 20 -40 32 -17 11 -59 41 -95 65 -263 183 -644 343
-950 399 -30 6 -66 12 -80 15 -14 3 -45 8 -70 11 -25 3 -56 7 -70 10 -28 7
-465 15 -471 10z"/>
<path d="M5036 3893 l-125 -168 67 -3 c64 -3 67 -2 95 30 16 18 41 47 55 63
86 97 202 235 202 239 0 3 -38 6 -85 6 l-84 0 -125 -167z"/>
<path d="M3399 3945 c0 -22 0 -140 0 -262 0 -135 -4 -223 -9 -223 -6 0 -10 4
-10 9 0 14 -58 70 -99 95 -101 64 -265 70 -374 14 -174 -88 -269 -332 -234
-603 10 -80 51 -198 81 -231 6 -8 25 -31 41 -53 66 -86 170 -130 300 -126 129
4 203 40 276 132 l27 33 0 -64 c0 -35 2 -68 5 -73 4 -6 89 -9 152 -4 10 1 15
1390 5 1392 -3 1 -40 2 -82 3 l-78 1 -1 -40z m-174 -489 c71 -30 130 -111 157
-216 20 -75 16 -248 -6 -324 -44 -149 -152 -228 -292 -212 -159 17 -248 160
-245 396 1 88 9 135 35 202 36 90 91 143 174 168 38 12 134 4 177 -14z"/>
<path d="M656 3902 c-7 -15 -17 -38 -21 -52 -4 -14 -13 -38 -21 -55 -7 -16
-47 -120 -88 -230 -81 -217 -286 -755 -312 -820 -48 -117 -56 -143 -51 -152 5
-8 174 -10 181 -2 2 2 30 78 63 169 l59 165 303 0 304 0 22 -60 c12 -33 36
-103 55 -155 47 -136 35 -125 135 -123 47 0 88 3 90 5 4 3 -85 246 -112 308
-3 8 -7 20 -9 25 -5 17 -140 367 -157 408 -9 20 -16 39 -17 42 -1 7 -3 12 -70
190 -34 88 -70 185 -81 215 -11 30 -24 64 -28 75 -5 11 -13 32 -19 47 -11 26
-12 26 -111 26 -100 1 -101 0 -115 -26z m197 -382 c106 -285 157 -427 157
-432 0 -3 -110 -5 -244 -5 l-245 0 15 29 c8 15 14 31 14 35 -2 17 215 592 221
585 3 -4 40 -99 82 -212z"/>
<path d="M1973 3609 c-70 -13 -132 -47 -188 -106 l-55 -56 0 74 0 74 -72 -1
c-40 -1 -78 -2 -83 -3 -8 -1 -10 -158 -9 -493 0 -271 2 -497 3 -503 1 -8 112
-12 154 -6 4 0 7 140 7 309 0 244 3 320 15 366 35 134 139 210 281 207 92 -2
151 -39 187 -120 19 -41 22 -68 24 -251 2 -113 5 -211 8 -217 2 -7 0 -13 -6
-13 -6 0 -8 -4 -5 -8 3 -5 5 -38 6 -73 0 -68 1 -125 4 -173 l1 -30 70 1 c39 1
75 2 81 2 15 1 11 687 -4 758 -35 164 -147 261 -306 267 -39 2 -90 -1 -113 -5z"/>
<path d="M4348 3615 c-2 -2 -19 -5 -38 -8 -54 -9 -62 -12 -104 -32 -41 -20
-102 -74 -127 -114 -14 -23 -15 -20 -14 52 1 64 -1 77 -14 78 -9 0 -46 1 -84
2 l-67 2 -1 -30 c-3 -155 0 -965 4 -972 7 -11 144 -10 154 1 4 4 8 143 9 309
1 166 5 313 8 326 13 58 30 98 54 131 37 50 43 55 92 80 69 35 173 38 251 6
13 -6 15 5 16 79 0 71 -2 85 -16 86 -45 4 -120 7 -123 4z"/>
<path d="M4923 3605 c-136 -29 -247 -114 -308 -236 -28 -55 -30 -60 -50 -157
-12 -61 -13 -222 -1 -271 45 -185 169 -316 341 -361 112 -29 319 -17 455 26
78 25 84 32 85 114 1 39 0 70 -1 70 -1 0 -36 -13 -77 -30 -41 -16 -104 -36
-139 -43 -80 -17 -230 -15 -283 3 -122 43 -197 145 -219 297 l-4 33 381 2 382
3 -1 60 c-3 210 -63 345 -190 433 -87 60 -245 84 -371 57z m223 -145 c83 -28
154 -126 168 -232 l6 -47 -296 -1 -296 0 7 42 c21 124 106 217 225 246 46 11
140 7 186 -8z"/>
</g>
</svg>
